<?xml version="1.0" standalone="no"?>
<!DOCTYPE svg PUBLIC "-//W3C//DTD SVG 20010904//EN"
 "http://www.w3.org/TR/2001/REC-SVG-20010904/DTD/svg10.dtd">
<svg version="1.0" xmlns="http://www.w3.org/2000/svg"
        width="52.000000pt" height="52.000000pt" viewBox="0 0 512.000000 512.000000"
        preserveAspectRatio="xMidYMid meet">
       
    <g transform="translate(0.000000,512.000000) scale(0.100000,-0.100000)"
       fill="#bf925b" stroke="none">
       <path d="M58 4215 c-59 -33 -58 -21 -48 -611 9 -544 18 -732 46 -924 50 -348
       155 -596 328 -779 113 -118 471 -372 755 -535 423 -243 807 -393 1156 -452
       122 -21 386 -23 500 -5 518 83 1139 377 1734 821 156 116 208 164 283 264 181
       240 268 550 298 1061 16 268 13 1058 -4 1098 -21 50 -52 72 -102 72 -36 0 -49
       -6 -76 -32 l-32 -32 -7 -190 c-13 -322 -49 -550 -124 -778 -148 -448 -417
       -732 -831 -876 -208 -73 -404 -101 -708 -101 l-228 -1 -19 73 c-94 370 -469
       504 -703 251 -73 -79 -123 -179 -150 -301 l-6 -28 -173 0 c-559 0 -917 113
       -1196 377 -121 114 -205 231 -286 398 -131 269 -205 587 -235 1003 -6 84 -15
       164 -20 177 -19 50 -103 78 -152 50z"/>
       <path d="M2307 3750 c-382 -132 -1013 -507 -1210 -720 -79 -85 -107 -139 -107
       -204 0 -66 25 -113 78 -147 114 -72 215 -45 530 145 382 230 518 281 787 297
       192 11 157 11 345 0 273 -16 411 -69 795 -301 252 -153 356 -192 453 -170 91
       20 152 92 152 177 -1 113 -135 259 -410 445 -292 198 -660 391 -910 477 -84
       29 -102 32 -165 27 -90 -8 -87 -8 -175 -1 -66 5 -85 2 -163 -25z"/>
    </g>
 </svg>
