<?xml version="1.0" standalone="no"?>
<!DOCTYPE svg PUBLIC "-//W3C//DTD SVG 20010904//EN"
 "http://www.w3.org/TR/2001/REC-SVG-20010904/DTD/svg10.dtd">
<svg version="1.0" xmlns="http://www.w3.org/2000/svg"
        width="52.000000pt" height="52.000000pt" viewBox="0 0 512.000000 512.000000"
        preserveAspectRatio="xMidYMid meet">
       
       <g transform="translate(0.000000,512.000000) scale(0.100000,-0.100000)"
       fill="#bf925b" stroke="none">
       <path d="M3004 4946 c-57 -25 -74 -59 -74 -146 0 -42 3 -98 6 -124 l7 -46
       1078 0 c614 0 1080 4 1083 9 3 5 7 61 8 124 3 111 2 116 -22 142 -54 58 5 55
       -1067 55 -804 -1 -994 -3 -1019 -14z"/>
       <path d="M2965 4333 c6 -40 265 -3091 265 -3117 0 -14 83 -16 790 -16 l789 0
       5 33 c5 27 266 3109 266 3130 0 4 -477 7 -1060 7 l-1060 0 5 -37z"/>
       <path d="M1995 2665 c-27 -8 -462 -201 -965 -429 -861 -391 -917 -418 -957
       -461 -45 -49 -73 -117 -73 -177 0 -47 43 -165 72 -195 33 -35 78 -46 124 -30
       22 8 498 222 1059 477 697 316 1030 471 1050 491 40 39 39 92 -3 175 -38 75
       -99 129 -166 149 -59 18 -76 18 -141 0z"/>
       <path d="M1885 1763 c-176 -79 -324 -149 -329 -154 -15 -14 853 -12 893 2 84
       29 63 126 -48 221 -43 37 -137 78 -174 77 -12 0 -166 -66 -342 -146z"/>
       <path d="M680 1216 l-335 -152 -3 -199 c-3 -222 5 -274 61 -385 42 -84 159
       -204 244 -248 34 -18 96 -41 139 -52 73 -19 113 -20 799 -20 686 0 726 1 799
       20 202 52 358 197 423 394 26 80 26 83 27 397 1 342 0 351 -54 382 -26 16
       -103 17 -897 17 l-868 -1 -335 -153z"/>
       <path d="M3252 663 l3 -258 28 -57 c33 -67 90 -121 166 -157 l56 -26 520 0
       520 0 55 26 c100 47 169 138 190 249 5 29 10 149 10 266 l0 214 -776 0 -775 0
       3 -257z"/>
       </g>
 </svg>
