<?xml version="1.0" encoding="UTF-8"?>
<!DOCTYPE svg PUBLIC "-//W3C//DTD SVG 1.1//EN" "http://www.w3.org/Graphics/SVG/1.1/DTD/svg11.dtd">
        <svg version="1.0" xmlns="http://www.w3.org/2000/svg"
        width="52.000000pt" height="52.000000pt" viewBox="0 0 512.000000 512.000000"
        preserveAspectRatio="xMidYMid meet">
       
        <g><path style="opacity:0.986" fill="#bf925b" d="M 511.5,263.5 C 511.5,266.5 511.5,269.5 511.5,272.5C 509.84,274.248 507.84,274.748 505.5,274C 499.624,271.479 494.124,268.312 489,264.5C 491.066,289.481 489.066,314.148 483,338.5C 478.503,354.171 470.003,367.171 457.5,377.5C 453.368,337.338 445.201,298.005 433,259.5C 427.36,242.552 419.36,226.886 409,212.5C 404.135,207.3 398.968,202.467 393.5,198C 389.237,195.785 384.737,194.285 380,193.5C 322.361,219.361 262.028,230.695 199,227.5C 197.56,228.93 197.226,230.597 198,232.5C 202.057,238.278 207.223,242.778 213.5,246C 223.601,251.385 233.935,256.218 244.5,260.5C 234.005,261.897 223.672,261.064 213.5,258C 188.408,249.459 165.742,236.793 145.5,220C 137.371,213.54 129.537,206.706 122,199.5C 96.2122,221.383 79.8789,249.05 73,282.5C 66.1645,319.752 67.3311,356.752 76.5,393.5C 76.1667,394.5 75.5,395.167 74.5,395.5C 72.2466,394.747 70.4133,393.414 69,391.5C 32.4294,339.956 9.2627,282.956 -0.5,220.5C -0.5,208.833 -0.5,197.167 -0.5,185.5C 4.20004,147.584 24.2,121.418 59.5,107C 73.5957,102.515 87.9291,99.1818 102.5,97C 89.6916,95.816 77.025,93.816 64.5,91C 59.4729,89.973 56.4729,86.973 55.5,82C 56.0712,80.7949 56.7379,79.6283 57.5,78.5C 62.5616,80.9323 67.8949,82.4323 73.5,83C 87.1473,84.1658 100.814,84.9991 114.5,85.5C 111.281,74.9037 109.281,64.0704 108.5,53C 108.236,48.5941 109.069,44.4274 111,40.5C 112.734,38.5494 114.901,37.5494 117.5,37.5C 116.722,46.5762 119.389,54.4095 125.5,61C 127.365,62.3014 129.365,62.6347 131.5,62C 157.035,27.9006 191.035,12.9006 233.5,17C 236.232,17.413 238.899,18.0797 241.5,19C 234.39,22.6367 227.89,27.1367 222,32.5C 219.523,36.7796 220.356,40.2796 224.5,43C 283.485,35.1975 338.818,45.8642 390.5,75C 435.45,104.669 468.284,144.502 489,194.5C 498.039,217.115 505.539,240.115 511.5,263.5 Z"/></g>
        <g><path style="opacity:0.973" fill="#bf925b" d="M 293.5,421.5 C 307.99,420.387 320.99,424.22 332.5,433C 339.126,437.957 345.46,443.291 351.5,449C 361.862,453.787 372.695,456.954 384,458.5C 398.259,457.574 405.926,449.908 407,435.5C 422.732,460.918 416.565,478.418 388.5,488C 380.928,489.873 373.262,491.206 365.5,492C 340.446,493.019 315.446,492.352 290.5,490C 281.957,488.208 273.623,485.708 265.5,482.5C 255.335,487.5 244.668,491 233.5,493C 205.15,496.052 176.816,496.052 148.5,493C 138.059,491.299 128.392,487.632 119.5,482C 110.236,472.696 108.069,461.863 113,449.5C 114.306,445.554 116.139,441.888 118.5,438.5C 121.427,455.599 131.427,462.766 148.5,460C 157.654,458.393 166.32,455.393 174.5,451C 182.212,444.286 190.212,437.953 198.5,432C 221.31,419.378 242.31,421.878 261.5,439.5C 270.473,430.35 281.14,424.35 293.5,421.5 Z"/></g>
        </svg>
