<?xml version="1.0" standalone="no"?>
<!DOCTYPE svg PUBLIC "-//W3C//DTD SVG 20010904//EN"
 "http://www.w3.org/TR/2001/REC-SVG-20010904/DTD/svg10.dtd">
<svg version="1.0" xmlns="http://www.w3.org/2000/svg"
 width="512.000000pt" height="512.000000pt" viewBox="0 0 512.000000 512.000000"
 preserveAspectRatio="xMidYMid meet">

<g transform="translate(0.000000,512.000000) scale(0.100000,-0.100000)"
fill="#000000" stroke="none">
<path d="M1995 3154 c-38 -8 -108 -33 -155 -55 -78 -38 -98 -55 -246 -204 -89
-89 -190 -182 -225 -207 -247 -176 -498 -223 -696 -129 -120 57 -167 122 -168
232 0 113 56 171 186 189 66 9 79 15 79 35 0 27 -40 38 -119 32 -102 -7 -139
-20 -208 -70 -113 -84 -176 -211 -176 -357 -1 -139 53 -257 175 -380 220 -223
594 -324 1039 -280 385 38 834 164 1027 287 l53 34 29 -21 c91 -64 316 -151
545 -210 377 -96 752 -124 1003 -75 385 75 659 295 713 573 39 202 -101 437
-292 487 -78 21 -171 20 -199 -3 -20 -16 -20 -19 -7 -31 9 -7 43 -16 75 -21
82 -11 129 -36 160 -83 23 -34 27 -51 27 -106 -1 -110 -48 -175 -168 -232
-198 -94 -449 -47 -696 129 -35 25 -136 118 -225 208 -149 151 -167 166 -246
203 -91 43 -207 71 -292 71 -88 0 -177 -27 -305 -92 l-122 -62 -123 62 c-180
91 -285 109 -443 76z"/>
</g>
</svg>
